<?xml version="1.0" standalone="no"?>
<!DOCTYPE svg PUBLIC "-//W3C//DTD SVG 20010904//EN"
 "http://www.w3.org/TR/2001/REC-SVG-20010904/DTD/svg10.dtd">
<svg version="1.0" xmlns="http://www.w3.org/2000/svg"
 width="1080.000000pt" height="1080.000000pt" viewBox="0 0 1080.000000 1080.000000"
 preserveAspectRatio="xMidYMid meet">
<metadata>
Created by potrace 1.14, written by Peter Selinger 2001-2017
</metadata>
<g transform="translate(0.000000,1080.000000) scale(0.100000,-0.100000)"
fill="#000000" stroke="none">
<path d="M1939 9870 c-1 -19 -8 -999 -13 -1812 -3 -453 -1 -618 8 -620 6 -1
31 -2 56 -4 25 -1 52 -2 60 -3 13 -1 15 -19 14 -113 -1 -62 -2 -115 -3 -118 0
-3 -35 -4 -76 -3 l-75 1 0 -41 c-1 -23 -3 -576 -5 -1229 l-3 -1188 26 -1 c15
-1 43 -1 62 0 19 0 44 -2 55 -4 20 -4 20 -12 20 -1037 l0 -1033 1515 -3 1515
-2 0 1032 0 1033 1448 -1 1447 -1 1 176 c6 1427 5 2272 -4 2278 -9 5 -1020 10
-2532 12 l-361 1 2 103 c1 56 2 107 3 112 1 6 51 9 133 8 73 0 610 -4 1193 -8
583 -3 1183 -7 1333 -8 150 -2 276 0 280 3 4 3 8 205 8 450 1 245 4 794 5
1220 l4 775 -165 1 c-752 5 -2477 16 -2910 19 -489 4 -2018 14 -2742 18 -260
2 -298 0 -299 -13z"/>
</g>
</svg>
